<svg width="750" height="750"
     xmlns="http://www.w3.org/2000/svg" version="1.1">
<style>path {fill-opacity:1; stroke:none;}</style>
<path d="M 190,566.7962L 192,568.3939L 194,570L 196,571.4995L 198,573L 199,573.6667L 201,575L 203,576L 205,577L 207,578L 209,579L 211,580L 213,581L 215,582L 218,583L 221,584L 223.6667,584.6667L 225,585L 227.6667,585.6667L 229,586L 230.2505,586.2495L 232.7505,586.7495L 234,587L 236.8071,587.3907L 239.6044,587.7942L 241,588L 405,588L 406.2495,587.7495L 408.7495,587.2495L 410,587L 411.3333,586.6667L 414,586L 417,585L 419,584L 421,583L 423,582L 425,581L 427,580L 428,579.2495L 430,577.7495L 431,577L 432,576L 433,575L 434,574L 435,573L 436,572L 437,571L 438,570L 439.4995,568L 441,566L 442,564L 443,562L 444,560L 445,558L 446,556L 447,553L 447.2495,551.7495L 447.7495,549.2495L 448,548L 448,530L 447.6667,528.6667L 447,526L 446,523L 445,520L 444,518L 443,516L 442,514L 440.6667,512L 440,511L 439.2495,510L 437.7495,508L 437,507L 436,506L 435,505L 434,504L 433,503L 432,502L 430,500.5005L 428,499L 427,498.3333L 425,497L 423,496L 421,495L 419,494L 417.7495,493.5L 415.2495,492.5L 414,492L 412.7495,491.7505L 410.2495,491.2505L 409,491L 405.7813,490.6093L 402.5885,490.2058L 401,490L 384,490L 382,490L 377,490L 374.4002,490.1216L 371.8216,490.1516L 369.2699,490.0675L 368,490L 352,490L 349.5005,490.0015L 347,490L 322,490L 319.5005,490.0015L 317,490L 303,490L 300,490L 299,490L 297.6667,490L 296.28,490L 294.8345,490L 291.8516,489.9998L 290.3028,489.9992L 288.7561,489.9975L 287.2192,489.9934L 285.6959,489.9848L 284.1881,489.9688L 282.6965,489.9413L 279.7467,489.8539L 278.3076,489.7666L 276.8904,489.6452L 274.1065,489.3215L 271.4389,488.8117L 270.1786,488.4421L 267.7451,487.5742L 265.4975,486.4433L 263.4584,485.0452L 261.6523,483.3837L 260.104,481.4609L 258.8308,479.2683L 257.8352,476.786L 257.1018,473.9894L 256.6008,470.8671L 256.2905,467.4389L 256.1212,463.7621L 256.0423,459.9162L 256.0119,455.9763L 256.0026,451.9948L 256.0004,447.9992L 256,443.9999L 256,440L 256,436L 256,308L 256,304L 256,302L 256.0001,300.0002L 256.0009,296.0017L 256.0045,292.0086L 256.0178,288.0333L 256.0573,284.1043L 256.1538,280.2714L 256.2534,278.4374L 256.392,276.6628L 256.759,273.2469L 257.0418,271.6831L 257.7203,268.7146L 258.6293,266.066L 259.7721,263.7318L 261.1475,261.6917L 262.7604,259.9199L 264.6267,258.3935L 266.7712,257.1016L 269.2226,256.0474L 272.0052,255.239L 275.125,254.673L 278.5556,254.3209L 282.2353,254.1312L 286.083,254.0448L 290.0235,254.0123L 294.0051,254.0026L 298.0008,254.0004L 302.0001,254L 306,254L 310,254L 423,254L 427,254L 430.9999,254L 434.9992,254.0004L 436.997,254.0015L 440.9856,254.0072L 444.9462,254.0269L 446.8927,254.0538L 448.8064,254.0975L 450.6778,254.1633L 452.498,254.2564L 456.0212,254.5077L 459.2879,254.9074L 460.7792,255.1978L 462.2011,255.5391L 464.9138,256.3265L 467.3822,257.3261L 469.642,258.5387L 471.7221,259.9557L 473.6363,261.5627L 475.3868,263.3464L 476.181,264.3227L 477.6936,266.353L 478.3778,267.4322L 479.682,269.6157L 480.2745,270.7097L 481.4127,272.8666L 482.475,274.957L 483.4958,276.9922L 484,278L 485,279L 487,280L 489,281L 498,281L 500,280L 502,279L 503,278L 503.6667,277L 505,275L 505.5426,273.8555L 506.0946,272.7201L 506.6605,271.5966L 507.8284,269.3771L 509.0838,267.2154L 509.7682,266.163L 511.201,264.0816L 512.7631,262.0423L 514.4494,260.0403L 516.2429,258.084L 518.1193,256.1966L 520.0527,254.4078L 522.0206,252.7386L 524.007,251.186L 526.0016,249.7183L 527,249L 529,247.3907L 531,245.7942L 532,245L 533.6455,243L 535.3122,241L 537,239L 537.6667,238L 539,236L 540,234L 541,232L 542,230L 543,228L 544,225L 545,222L 545.6667,219.3333L 546,218L 546.3907,214.7813L 546.7942,211.5885L 547,210L 547,203L 546.7495,201.501L 546.2495,198.501L 546,197L 545.7495,195.7505L 545.2495,193.2505L 545,192L 544,189L 543,187L 542,185L 541,183L 540,181L 538.6667,179L 538,178L 536.6667,176L 536,175L 535,174L 534,173L 533,172L 532,171L 531,170L 530,169L 529,168L 527,166.5005L 525,165L 524,164.3333L 522,163L 520,162L 518,161L 516.7495,160.5L 514.2495,159.5L 513,159L 510,158L 507.3333,157.3333L 506,157L 502.7813,156.6093L 499.5885,156.2058L 498,156L 476,156L 474,156L 254,156L 252.5125,156.1854L 249.525,156.5375L 246.5125,156.8521L 245,157L 243.501,157.2505L 240.501,157.7505L 239,158L 237.7505,158.2505L 235.2505,158.7505L 234,159L 232.5563,159.4482L 229.6803,160.33L 226.8299,161.1784L 224,162L 221.7042,163L 219.3709,164L 217,165L 215,166L 213,167L 212,167.6029L 210,168.8047L 208,170L 206,171.3333L 205,172L 203,173.3333L 202,174L 200,175.3333L 199,176L 198,177L 197,178L 196,179L 195,180L 194,181L 193,182L 192,183L 191,184L 190,185L 189,186L 188,187L 187,188L 186,189L 185,190L 184,191L 183,192L 181.5005,194L 180,196L 179.3333,197L 178,199L 177.4036,200L 176.2058,202L 175,204L 174,206L 173,208L 172,210L 171,212L 170,214L 169,216L 168,219L 167,222L 166,225L 165.3333,227.6667L 165,229L 164.7505,230.2505L 164.2505,232.7505L 164,234L 163.7505,235.2505L 163.2505,237.7505L 163,239L 163,297L 163,301L 163,304.9999L 162.9996,308.9992L 162.9974,312.9948L 162.9882,316.9764L 162.9586,320.9172L 162.8847,324.7694L 162.7368,328.4736L 162.4966,331.9931L 162.1762,335.3524L 162,337L 162,339L 162.1758,340.6247L 162.494,343.9129L 162.725,347.2908L 162.8433,350.7526L 162.8433,354.2474L 162.725,357.7092L 162.494,361.0871L 162.1758,364.3753L 162,366L 162,367L 162.174,368.6016L 162.4848,371.8361L 162.6954,375.1404L 162.7694,378.5L 162.6954,381.8596L 162.4848,385.1639L 162.174,388.3984L 162,390L 162,392L 162.1762,393.6476L 162.4966,397.0069L 162.7368,400.5264L 162.8847,404.2306L 162.9586,408.0828L 162.9882,412.0236L 162.9974,416.0052L 162.9996,420.0008L 163,424.0001L 163,425.875L 163,429.5L 163,433.1249L 162.9996,436.9992L 162.9974,440.9948L 162.9882,444.9764L 162.9586,448.9172L 162.8847,452.7694L 162.7368,456.4736L 162.4966,459.9931L 162.1762,463.3524L 162,465L 162,516L 162.2505,517.499L 162.7505,520.499L 163,522L 163.3333,523.3333L 164,526L 165,529L 166,532L 167,534.499L 168,537L 169,539L 170,541L 171,543L 172,545L 173.3333,547L 174,548L 175.3333,550L 176,551L 177.3333,553L 178,554L 179.6093,556L 181.2058,558L 182,559L 183,560L 184,561L 185,562L 186,563L 187,564L 188,565L 189,566Z" style="fill:rgb(1,1,1);"/>
<path d="M 439,402L 440.356,402.4196L 441.6996,402.8458L 444.3505,403.7158L 446.909,404.6283L 448.1267,405.1116L 449.3114,405.6108L 450.4648,406.1273L 451.5899,406.663L 453.79,407.7753L 455.9045,408.9754L 456.933,409.6236L 458.9729,410.9701L 460.9843,412.4172L 461.9776,413.1911L 462.9615,413.9901L 463.9327,414.8136L 465.8421,416.5079L 466.7564,417.3999L 468.5319,419.2222L 469.3628,420.167L 470.9637,422.0811L 472.4453,424.0353L 473.8153,426.0142L 475.0845,428.0089L 476.2626,430.0205L 476.8094,431.0422L 477.8624,433.1162L 478.8367,435.2713L 479.7412,437.5468L 480.5927,439.9728L 481.4107,442.5507L 482.2099,445.2454L 483,448L 484.3333,450L 485,451L 486,452L 488,453L 491,454L 496,454L 499,453L 500,452L 501,451L 502,450L 503,449L 504,448L 505,445L 505.7338,442.4676L 506.4947,439.9889L 507.3034,437.6038L 507.7376,436.4665L 508.1881,435.355L 508.6558,434.2662L 509.142,433.1969L 509.6483,432.1438L 510.705,430.0636L 511.8575,428.0246L 512.4888,427.0166L 513.8111,425.0068L 515.2544,423.0086L 516.0365,422.0178L 516.8471,421.0356L 517.6846,420.0654L 519.4096,418.1574L 520.3175,417.2433L 522.1691,415.468L 523.1255,414.6372L 525.0589,413.0363L 527.0271,411.5546L 529.0212,410.1843L 531.0463,408.9136L 533.1251,407.73L 535.2945,406.6217L 537.5919,405.5799L 540.0352,404.6011L 542.6114,403.685L 545.2822,402.8251L 548,402L 550,401L 551,400L 552,399L 553,398L 554,395L 554,387L 552.6667,385L 552,384L 551,383L 549,382L 547,381L 545.605,380.5L 544.2295,379.9998L 542.8808,379.4993L 541.5641,378.9978L 540.2826,378.4946L 539.0374,377.9881L 537.8279,377.4767L 536.6522,376.9578L 535.5073,376.4286L 534.3899,375.8859L 532.2024,374.767L 530.095,373.5676L 529.0677,372.915L 528.0483,372.2311L 526.023,370.7988L 525.0233,370.0178L 523.0394,368.3937L 522.0683,367.5238L 520.1603,365.7364L 519.2487,364.8014L 518.3662,363.852L 516.665,361.9296L 515.8817,360.9496L 514.3857,358.9786L 513.0256,356.9896L 511.7859,354.9858L 510.6423,352.9585L 509.5708,350.8852L 508.5551,348.7322L 507.5912,346.467L 506.6817,344.0744L 505.8243,341.5699L 505,339L 504,336L 503,334L 502,333L 501,332L 500,331L 498,330L 495,329L 492,329L 489,330L 487,331L 486,332L 485,333L 484,334L 483,335L 482.6343,336.2804L 482.262,337.5536L 481.4989,340.08L 480.6911,342.5586L 479.8288,344.976L 479.37,346.1493L 478.8977,347.303L 478.4114,348.4369L 477.9097,349.5514L 477.3909,350.6476L 476.3142,352.8061L 475.1507,354.9044L 474.5168,355.9311L 473.1909,357.9698L 471.7461,359.9823L 470.9639,360.9761L 470.1531,361.9605L 469.3155,362.932L 467.5904,364.8418L 466.6825,365.7563L 464.8309,367.5319L 463.8745,368.3627L 461.9411,369.9637L 459.9729,371.4454L 457.9788,372.8157L 455.9537,374.0864L 453.8749,375.27L 451.7055,376.3783L 449.4081,377.4201L 446.9648,378.3989L 444.3886,379.315L 441.7178,380.1749L 439,381L 437,382L 436,383L 435,384L 434,385L 433,387L 432,390L 432,392L 432.3333,393.3333L 433,396L 434,398L 435,399L 436,400L 437,401Z" style="fill:rgb(1,1,1);"/>
<path d="M 508,574.4995L 510,576L 512,577L 514,578L 516,579L 518,580L 521,581L 522.2505,581.2495L 524.7505,581.7495L 526,582L 540,582L 541.3333,581.6667L 544,581L 547,580L 550,579L 552,578L 554,577L 556,575.6667L 557,575L 559,573.3907L 561,571.7942L 562,571L 563,570L 564,569L 565.4995,567L 567,565L 567.6667,564L 569,562L 570,560L 570.5,558.7495L 571.5,556.2495L 572,555L 573,552L 573.2495,550.7495L 573.7495,548.2495L 574,547L 574,537L 573.7495,535.501L 573.2495,532.501L 573,531L 572,528L 571,525L 570,523L 569,521L 567.6667,519L 567,518L 565.6667,516L 565,515L 564,514L 563,513L 562,512L 561,511L 560,510L 559,509L 558,508.3333L 556,507L 555,506.3333L 553,505L 551,504L 549.7495,503.5L 547.2495,502.5L 546,502L 543.3333,501.3333L 542,501L 540.7495,500.7505L 538.2495,500.2505L 537,500L 530,500L 528.501,500.2505L 525.501,500.7505L 524,501L 522.6667,501.3333L 520,502L 517.501,503L 515,504L 513,505L 511,506.3333L 510,507L 508,508.3333L 507,509L 506,510L 505,511L 504,512L 503,513L 502,514L 501,515L 499.5005,517L 498,519L 497,521L 496,523L 495,525L 494,527L 493.3333,529.6667L 493,531L 492.7505,532.2505L 492.2505,534.7505L 492,536L 492,546L 492.2505,547.499L 492.7505,550.499L 493,552L 494,555L 495,558L 496,560L 497,562L 498,564L 499.6093,566L 501.2058,568L 502,569L 503,570L 504,571L 505,572L 506,573Z" style="fill:rgb(1,1,1);"/>
<path d="M 589,337.6667L 591,339L 593,340L 596,341L 599,342L 611,342L 612.3333,341.6667L 615,341L 618,340L 620,338.6667L 621,338L 623,336.6667L 624,336L 625,335L 626,334L 627,333L 628.4995,331L 630,329L 631,327L 632,325L 633,322L 633.2495,320.7495L 633.7495,318.2495L 634,317L 634,311L 633.7495,309.7505L 633.2495,307.2505L 633,306L 632,303L 631,300L 629.6667,298L 629,297L 628,296L 627,295L 626,294L 625,293L 624,292L 623,291L 622,290L 621,289.3333L 619,288L 616,287L 613,286L 611.499,285.7505L 608.499,285.2505L 607,285L 603,285L 601.7505,285.2505L 599.2505,285.7505L 598,286L 595,287L 593,288L 591,289L 589,290L 588,291L 587,292L 586,293L 585,294L 584,295L 583,296L 582,297L 581,299L 580,301L 579,303L 578,305L 577.7505,306.501L 577.2505,309.501L 577,311L 577,317L 577.2505,318.2495L 577.7505,320.7495L 578,322L 579,325L 580,327L 581,329L 582.3333,331L 583,332L 584,333L 585,334L 586,335L 587,336L 588,337Z" style="fill:rgb(1,1,1);"/>
<path d="M 591,462L 593,463L 595,464L 598,465L 613,465L 616,464L 618,463L 620,462L 622,460.6667L 623,460L 624,459L 625,458L 626,457L 627,456L 628,455L 628.6667,454L 630,452L 631,450L 632,448L 633,445L 633.2495,443.499L 633.7495,440.499L 634,439L 634,434L 633.7495,432.7505L 633.2495,430.2505L 633,429L 632,426L 631,424L 630,422L 629,420L 628,419L 627,418L 626,417L 625,416L 624,415L 623,414L 622,413.3333L 620,412L 618,411L 616,410L 613,409L 610.1929,408.6093L 607.3956,408.2058L 606,408L 605,408L 603.6044,408.2058L 600.8071,408.6093L 598,409L 595,410L 593,411L 591,412L 589,413L 588,414L 587,415L 586,416L 585,417L 584,418L 583,419L 582,420L 581,422L 580,424L 579,426L 578,428L 577.7505,429.2505L 577.2505,431.7505L 577,433L 577,441L 577.3333,442.3333L 578,445L 579,448L 580,450L 581,452L 582,454L 583,455L 584,456L 585,457L 586,458L 587,459L 588,460L 589,461Z" style="fill:rgb(1,1,1);"/>
<path d="M 0,0L 0,750L 750,750L 750,0ZM 163,337L 163,279L 163,275L 163,271.0001L 163.0004,267.0008L 163.0026,263.0052L 163.0072,261.0144L 163.0169,259.0339L 163.0524,255.1058L 163.1336,251.2744L 163.2872,247.606L 163.4098,245.886L 163.7023,242.5792L 164.0821,239.5328L 164.307,238.1207L 164.7842,235.3687L 165.0499,234.0424L 165.6115,231.4006L 165.9262,230.0781L 166.596,227.417L 166.9725,226.0734L 167.7662,223.3869L 168.6342,220.7276L 169.56,218.1474L 170.5252,215.6889L 171.5172,213.3685L 172.5339,211.173L 173.584,209.0701L 174.1319,208.0471L 174.6921,207.0313L 175.2639,206.0205L 175.8466,205.0133L 176.4404,204.0085L 177.0462,203.0054L 177.6654,202.0034L 178.2995,201.0021L 178.9503,200.0013L 179.6194,199.0008L 180.3083,198.0005L 181.0182,197.0003L 181.75,196.0002L 183.2588,194L 184.8594,192L 185.7056,191.0002L 187.4407,189.0015L 189.2556,187.0072L 191.1364,185.0267L 192.1013,184.0531L 193.0745,183.0952L 194.0542,182.1573L 196.0239,180.3284L 198.0095,178.6037L 200.0034,176.9941L 202.0011,175.4927L 203.0007,174.7867L 205.0004,173.41L 207.0026,172.096L 209.0151,170.8315L 211.0575,169.6048L 212.1092,169.0067L 214.2559,167.827L 216.4825,166.6881L 218.7568,165.6084L 219.8971,165.1067L 222.1835,164.1423L 224.5153,163.244L 226.9634,162.384L 229.565,161.5428L 232.2813,160.7344L 235.0426,159.9956L 237.8227,159.348L 240.6453,158.7838L 243.5325,158.285L 246.479,157.8456L 249.4682,157.4694L 252.4858,157.1488L 254,157L 255.6476,156.8238L 259.0069,156.5034L 262.5264,156.2632L 266.2306,156.1153L 270.0828,156.0414L 274.0236,156.0118L 278.0052,156.0026L 282.0008,156.0004L 286.0001,156L 290,156L 294,156L 434,156L 438,156L 441.9999,156L 445.9992,156.0004L 449.9948,156.0026L 453.9764,156.0118L 457.9172,156.0414L 461.7694,156.1153L 465.4736,156.2632L 468.9931,156.5034L 472.3524,156.8238L 474,157L 476,157L 479.3044,156.675L 482.6839,156.4247L 486.1479,156.3046L 489.6303,156.3415L 493.0461,156.5304L 496.3567,156.8393L 499.5698,157.2326L 502.682,157.7017L 505.6599,158.2658L 508.4788,158.9443L 511.1472,159.7383L 512.4191,160.1875L 513.6648,160.6606L 514.8852,161.1575L 517.2762,162.1996L 519.5693,163.3405L 520.6696,163.9625L 522.83,165.2588L 524.9175,166.6587L 525.931,167.4094L 526.9294,168.1851L 527.9108,168.9855L 529.8345,170.6348L 530.7516,171.5063L 532.5306,173.2913L 533.3619,174.2217L 534.9635,176.112L 536.4453,178.0528L 537.8153,180.0313L 539.0841,182.0458L 539.6723,183.0775L 540.2379,184.1274L 541.3226,186.2698L 542.3099,188.508L 543.1906,190.8594L 543.959,193.3334L 544.6175,195.925L 545.1699,198.5986L 545.3884,199.9403L 545.5711,201.2664L 545.8572,203.8881L 545.9154,205.1828L 545.9413,207.7995L 545.8654,209.1558L 545.6301,211.9349L 545.2359,214.82L 544.6972,217.7342L 544.3629,219.1619L 544.0001,220.5608L 543.6115,221.9275L 542.7869,224.5925L 542.3308,225.8538L 541.8551,227.079L 541.3594,228.2697L 540.326,230.5872L 539.2017,232.7894L 538.5859,233.8467L 537.2917,235.9317L 535.8656,237.9672L 534.3013,239.9648L 532.6057,241.9182L 530.7987,243.8042L 528.9084,245.5924L 526.9633,247.2615L 524.9875,248.814L 522.9972,250.2817L 522,251L 521,252L 520,253L 519,254L 518,255L 517,256L 516,257L 515,258L 514,259L 513,260L 512,261L 511,262L 510,263L 509.3333,264L 508,266L 507.4749,267.0259L 506.4045,269.0828L 505.8389,270.1116L 504.6558,272.1491L 504.0015,273.1279L 502.6086,275.0013L 501.8187,275.8301L 500.1324,277.3363L 499.1837,277.9214L 498.1884,278.409L 496.1221,279.1812L 493.9467,279.538L 491.758,279.4699L 489.6592,278.9852L 487.7349,278.105L 486.0318,276.8556L 484.5517,275.2667L 483.2593,273.3778L 482.0971,271.2546L 481,269L 480,267L 478.6667,265L 478,264L 477,263L 476,262L 475,261L 474,260L 473,259L 472,258L 471,257.3333L 469,256L 467,255L 464.3333,254.3333L 463,254L 270,254L 267,255L 265,256L 263,257.3333L 262,258L 261,259L 260,260L 259.3333,261L 258,263L 257,265L 256,268L 256,476L 256.3333,477.3333L 257,480L 258,482L 259,483L 260,484L 261,485L 262,486L 263,487L 264,488L 266,489L 268,490L 269.5125,490.1479L 272.525,490.4625L 275.5125,490.8146L 277,491L 281,491L 284,491L 287,491L 289,491L 290,491L 292.4995,490.9985L 295,491L 299,491L 300,491L 303,491L 306.1198,490.7669L 309.2424,490.6424L 312.358,490.6851L 315.456,490.8755L 317,491L 322,491L 325.2666,490.6662L 328.5926,490.3951L 331.9921,490.2306L 335.426,490.1937L 338.83,490.2898L 342.1546,490.5106L 345.3966,490.8251L 347,491L 352,491L 353.5885,490.8534L 356.7813,490.6161L 360,490.5255L 363.2187,490.6161L 366.4115,490.8534L 368,491L 377,491L 379.4995,490.9985L 382,491L 384,491L 387.1079,490.7024L 390.2274,490.4982L 393.3466,490.4522L 394.8918,490.5162L 396.4324,490.6152L 397.9737,490.7424L 399.5149,490.8927L 401.0495,491.063L 404.0872,491.441L 407.0248,491.8946L 408.4139,492.1633L 409.7598,492.4569L 412.3726,493.0967L 414.8464,493.8448L 416.0309,494.2745L 418.3591,495.1883L 420.609,496.2103L 422.7857,497.3396L 424.8951,498.5766L 425.9207,499.2483L 426.933,499.9459L 428.9289,501.3918L 429.8947,502.1653L 430.8402,502.9638L 432.6866,504.6102L 433.5624,505.4815L 435.2631,507.2679L 436.8621,509.1347L 438.3594,511.0688L 439.0575,512.0664L 440.4031,514.0972L 441.6488,516.2131L 442.2235,517.3287L 443.3267,519.6304L 444.3363,522.0775L 445.2462,524.6727L 446.0403,527.4147L 446.367,528.8629L 446.6511,530.3517L 446.8892,531.8787L 447.2684,534.9973L 447.3578,536.6036L 447.4345,539.8206L 447.374,541.4089L 447.2682,542.9657L 447.1196,544.4844L 446.7415,547.4383L 446.2102,550.2179L 445.5426,552.8223L 445.149,554.0455L 444.7294,555.2349L 444.2849,556.3937L 443.3469,558.6565L 442.3098,560.8226L 441.1674,562.9175L 439.9096,564.9639L 439.2192,565.9702L 438.4977,566.9679L 436.9933,568.9425L 436.1817,569.9032L 434.5038,571.7857L 432.7248,573.5781L 431.7938,574.4193L 429.9011,576.0415L 427.9562,577.5414L 425.9736,578.9191L 424.9643,579.5497L 422.9196,580.7585L 420.8087,581.8701L 418.6025,582.8963L 416.2825,583.8408L 413.8531,584.6975L 411.3337,585.4567L 408.7294,586.1139L 406.0028,586.6716L 403.0826,587.1311L 399.9046,587.4875L 396.4525,587.7359L 392.7661,587.8847L 388.917,587.9586L 384.9764,587.9882L 380.9948,587.9974L 376.9992,587.9996L 372.9999,588L 369,588L 365,588L 281,588L 277,588L 273.0001,588L 269.0008,587.9996L 265.0052,587.9974L 261.0236,587.9882L 257.0828,587.9586L 253.2306,587.8847L 251.3785,587.8108L 249.5756,587.7139L 246.0766,587.4774L 242.8007,587.1652L 241.2752,586.9821L 238.3191,586.5953L 236.9214,586.3805L 234.1771,585.9264L 232.8428,585.6724L 230.1881,585.1331L 228.8663,584.8307L 226.2175,584.19L 224.8893,583.8332L 222.2393,583.0826L 219.6224,582.2611L 217.0813,581.377L 215.8671,580.9104L 214.6847,580.435L 212.3807,579.4695L 210.1881,578.4767L 208.0815,577.456L 207.056,576.926L 205.0201,575.8361L 203.0061,574.6765L 201.0015,573.43L 200.0009,572.7598L 198.0002,571.375L 196.0004,569.9075L 194.0024,568.3716L 192.0116,566.7802L 190.0411,565.1387L 188.1152,563.4408L 186.2628,561.6749L 185.3823,560.7556L 184.5231,559.8198L 183.6825,558.8697L 182.8588,557.9075L 181.2432,555.9635L 180.4665,554.976L 178.9445,552.9929L 177.4858,550.9984L 176.0911,548.9991L 174.7595,546.9956L 174.1255,545.9882L 172.8906,543.9586L 171.7206,541.8845L 171.1656,540.8095L 170.0803,538.6083L 169.0386,536.2992L 168.0326,533.8792L 167.0641,531.3566L 166.6054,530.0493L 166.1646,528.7206L 165.3235,526.021L 164.5694,523.2365L 163.9098,520.3627L 163.3453,517.3842L 162.8781,514.2689L 162.5162,510.9742L 162.2652,507.471L 162.1155,503.7731L 162.0414,499.9524L 162.0119,496.121L 162.003,492.3589L 162.003,488.6411L 162.0119,484.879L 162.0414,481.0476L 162.1153,477.2267L 162.2632,473.5264L 162.5034,470.0069L 162.8238,466.6476L 163,465L 163,392L 163,390L 163,367L 163,366L 163,339ZM 449,404L 446.2338,402.9865L 444.9068,402.4593L 443.6325,401.9078L 441.2094,400.7373L 440.1421,400.0658L 439.1648,399.3341L 437.407,397.7403L 436.0749,395.8804L 435.2278,393.7752L 435.0687,392.6422L 435.024,390.363L 435.2725,389.2481L 436.029,387.111L 437.2841,385.2042L 438.9923,383.58L 441.0978,382.2206L 443.5312,381.0569L 446.2026,380.0055L 449,379L 451,378L 453,377L 455,376L 457,375L 459,373.6667L 460,373L 462,371.6667L 463,371L 464,370L 465,369L 466,368L 467,367L 468,366L 469,365L 470,364L 471,363L 472,362L 473.4995,360L 475,358L 476,356L 477,354L 478,352L 479,350L 480,348L 480.5,346.7495L 481.5,344.2495L 482,343L 482.4869,341.7603L 483.004,340.5479L 484.1245,338.2054L 484.7933,337.1434L 486.2733,335.1818L 487.1601,334.3879L 489.0739,333.0313L 491.2308,332.1708L 493.5309,331.8579L 495.8378,332.1123L 498.0115,332.9211L 499.9422,334.2422L 500.7581,335.1255L 502.2444,337.0733L 503.4741,339.3464L 504.5338,341.8794L 505.5171,344.602L 506,346L 507,348L 508,350L 509,352L 510,354L 511,356L 512,358L 513.3333,360L 514,361L 515,362L 516,363L 517,364L 518,365L 519,366L 520,367L 521,368L 522,369L 523,370L 524,371L 525,372L 526,372.6667L 528,374L 530,375L 532,376L 534,377L 536,378L 538,379L 539.3821,379.5134L 540.737,380.0355L 542.052,380.5722L 543.3158,381.1308L 545.7196,382.3077L 546.7784,382.9723L 547.7477,383.6903L 549.4913,385.2437L 550.815,387.0408L 551.663,389.0736L 551.828,390.1761L 551.8884,392.4101L 551.6506,393.5205L 550.9158,395.667L 549.6807,397.6139L 547.988,399.2925L 545.8926,400.7034L 543.4648,401.9053L 540.7961,402.9801L 538,404L 536,405L 534,406L 532,407L 530,408L 528,409.3333L 527,410L 525,411.3333L 524,412L 523,413L 522,414L 521,415L 520,416L 519,417L 518,418L 517,419L 516,420L 515,421L 513.5005,423L 512,425L 511,427L 510,429L 509,431L 508,433L 507,435L 506,437L 505.5608,438.3116L 504.6358,440.9102L 503.5745,443.4288L 502.3003,445.7949L 501.5312,446.8548L 499.8538,448.7964L 497.9139,450.3266L 496.839,450.8374L 494.6314,451.5734L 492.3691,451.7304L 490.1768,451.3128L 488.1693,450.3562L 486.4221,448.9121L 484.9561,447.0421L 483.7423,444.8229L 482.7225,442.3465L 481.83,439.71L 481,437L 480,435L 479,433L 478,431L 477,429L 476,427L 474.6667,425L 474,424L 472.6667,422L 472,421L 471,420L 470,419L 469,418L 468,417L 467,416L 466,415L 465,414L 464,413L 462,411.5005L 460,410L 459,409.3333L 457,408L 455,407L 453,406L 451,405ZM 495.241,554.5771L 494.8331,553.2067L 494.4647,551.8031L 494.1381,550.3739L 493.856,548.9281L 493.6206,547.4745L 493.247,544.5689L 493.1596,543.132L 493.1228,541.7142L 493.1352,540.3182L 493.2554,537.572L 493.5577,534.9204L 494.0244,532.366L 494.3311,531.1384L 494.6714,529.9364L 495.4184,527.5837L 496.2978,525.3309L 496.8051,524.2494L 497.8896,522.1225L 499.115,520.0587L 500.4804,518.0456L 501.9796,516.0853L 503.604,514.1969L 504.4739,513.3029L 506.267,511.5767L 507.2155,510.7772L 509.1641,509.2415L 511.2168,507.828L 513.3749,506.5295L 515.6344,505.3463L 517.9898,504.2867L 520.4431,503.3605L 521.7213,502.9667L 523.0203,502.6085L 524.3326,502.2871L 525.6495,502.0048L 528.2772,501.5235L 529.5735,501.3717L 532.1358,501.1661L 534.6421,501.1602L 535.8766,501.2567L 538.3388,501.5421L 539.5653,501.7726L 540.7899,502.0429L 542.0113,502.3516L 543.2277,502.6977L 545.6466,503.4627L 548.0286,504.3696L 549.1919,504.89L 551.4825,505.9942L 553.6953,507.2221L 554.7583,507.8965L 555.7978,508.6017L 557.8268,510.074L 558.7879,510.8717L 560.6498,512.5262L 562.3862,514.2921L 563.9922,516.1557L 565.4726,518.1066L 566.8379,520.1493L 567.4672,521.228L 568.6724,523.4594L 569.7666,525.852L 570.7375,528.4202L 571.5689,531.1501L 572.243,533.9985L 572.7384,536.9049L 573.0288,539.8093L 573.0912,542.6664L 572.9198,545.4482L 572.5304,548.1422L 571.9489,550.7506L 571.1988,553.286L 570.2969,555.7598L 569.256,558.169L 568.6714,559.3311L 567.4437,561.5983L 566.1055,563.7405L 564.6671,565.7428L 563.8996,566.6752L 562.313,568.4806L 560.6181,570.1795L 558.8093,571.7902L 557.8487,572.5525L 555.8716,574.0273L 554.8249,574.7111L 552.6662,576.0196L 550.3688,577.2082L 547.9231,578.275L 545.3317,579.2167L 543.9677,579.6186L 542.5719,579.9796L 541.1461,580.2953L 538.2414,580.8278L 536.7466,580.9884L 533.7422,581.1956L 532.243,581.1859L 529.2819,581.0594L 526.4211,580.7305L 523.6982,580.223L 522.4114,579.8912L 521.1604,579.5247L 518.726,578.7252L 516.419,577.7965L 514.2209,576.743L 512.1128,575.5637L 511.0973,574.9104L 510.1014,574.2254L 508.1515,572.7929L 507.2214,572.0153L 505.4099,570.4007L 503.6955,568.6711L 502.0774,566.8341L 500.5586,564.8964L 499.1503,562.8566L 498.5079,561.7769L 497.2878,559.5434L 496.198,557.1487ZM 580.9022,325.4751L 580.4197,324.3195L 579.5536,321.9624L 579.2241,320.7457L 578.9509,319.5163L 578.7359,318.2761L 578.5805,317.0267L 578.4855,315.7698L 578.4508,314.5079L 578.4757,313.2446L 578.5587,311.9841L 578.8376,309.4779L 579.0861,308.2489L 579.6854,305.8314L 580.0847,304.6682L 580.5325,303.5307L 581.5246,301.3072L 582.117,300.2467L 583.3968,298.1785L 584.8617,296.2221L 585.6801,295.3091L 587.3947,293.5608L 588.3261,292.7694L 589.2922,292.0232L 590.2926,291.323L 592.3611,290.0154L 593.4624,289.4561L 595.7305,288.4364L 596.9285,288.0292L 598.1571,287.6781L 599.4149,287.3858L 600.7002,287.155L 602.0106,286.988L 603.3428,286.8869L 604.6926,286.8531L 607.4169,286.9215L 610.1673,287.2628L 612.893,287.8736L 615.5403,288.7421L 616.8013,289.2966L 619.2438,290.5162L 621.5173,291.9493L 623.6061,293.5826L 624.5533,294.4967L 626.3475,296.4218L 627.9383,298.5381L 628.6292,299.6844L 629.266,300.8659L 630.4292,303.2857L 630.8981,304.5388L 631.3083,305.8002L 631.6586,307.0652L 632.2376,309.5952L 632.5703,312.1166L 632.6531,314.6194L 632.5701,315.8612L 632.2831,318.3333L 632.0208,319.5538L 631.3826,321.9685L 630.5242,324.3174L 629.9929,325.4453L 628.8383,327.6424L 627.5092,329.7115L 626.7649,330.6734L 625.1981,332.52L 623.4699,334.2118L 622.5188,334.981L 620.5237,336.443L 619.4321,337.0958L 617.1554,338.3159L 614.6965,339.3525L 612.0688,340.1748L 610.6819,340.4602L 609.268,340.6734L 607.8344,340.8113L 604.9437,340.9334L 602.0409,340.7471L 600.618,340.5046L 599.2249,340.1941L 596.5097,339.4459L 593.9538,338.4591L 592.7682,337.8609L 590.4946,336.5707L 588.4168,335.1017L 586.5343,333.4697L 585.6886,332.5787L 584.0896,330.7258L 582.6722,328.7331L 582.0522,327.6685ZM 580.813,448.4146L 580.3278,447.2277L 579.4508,444.794L 579.1129,443.526L 578.8332,442.2427L 578.615,440.9498L 578.4605,439.6533L 578.3702,438.359L 578.3436,437.0724L 578.3789,435.7985L 578.4737,434.5417L 578.7772,432.0687L 579.0375,430.8775L 579.6573,428.5454L 580.0637,427.4284L 580.517,426.3339L 581.5177,424.1869L 582.1123,423.1543L 583.3951,421.1311L 584.8612,419.2009L 585.68,418.2944L 586.5378,417.4248L 587.4334,416.5953L 589.2989,415.0211L 590.3057,414.3221L 591.3499,413.6696L 593.5133,412.4595L 594.6692,411.9518L 595.8596,411.4959L 598.3045,410.6915L 600.8638,410.1112L 602.1848,409.9419L 603.5166,409.8367L 604.8532,409.7963L 606.1888,409.8209L 608.8459,409.999L 610.1493,410.2147L 612.711,410.7663L 613.9401,411.1582L 615.1386,411.6038L 617.4732,412.5981L 618.577,413.1946L 620.7191,414.4797L 622.7246,415.9414L 624.5794,417.5654L 625.4221,418.4521L 627.0155,420.2965L 627.7189,421.289L 628.3753,422.316L 628.9848,423.3767L 630.1094,425.5625L 630.5753,426.7161L 630.9903,427.8959L 631.7135,430.3045L 632.2142,432.8047L 632.3446,434.095L 632.4121,435.4015L 632.4165,436.7202L 632.3003,439.3716L 631.9382,442.0254L 631.6401,443.3266L 631.2875,444.6023L 630.4771,447.0939L 629.4635,449.4544L 628.8614,450.5614L 627.5673,452.6998L 626.099,454.6851L 624.468,456.5124L 622.6846,458.1754L 621.7186,458.9224L 620.7131,459.6263L 618.6181,460.9458L 617.4816,461.5139L 615.1118,462.5486L 613.8303,462.9573L 612.5049,463.3041L 611.1415,463.5857L 609.7481,463.7996L 608.334,463.9442L 606.9091,464.0192L 605.4836,464.0252L 602.6499,463.9021L 601.2673,463.7095L 598.5642,463.2024L 597.2822,462.8315L 596.0395,462.4058L 593.6318,461.4472L 592.5048,460.8632L 590.3257,459.5955L 588.2986,458.1357L 587.3652,457.318L 585.5858,455.6038L 583.9868,453.7377L 582.5738,451.7262L 581.9579,450.6469Z" style="fill:rgb(254,254,254);"/>
</svg>