<svg width="750" height="750"
     xmlns="http://www.w3.org/2000/svg" version="1.1">
<style>path {fill-opacity:1; stroke:none;}</style>
<path d="M 163,327L 163,310L 162,310L 162,327Z" style="fill:rgb(93,93,93);"/>
<path d="M 163,416L 163,408L 162,408L 162,416Z" style="fill:rgb(93,93,93);"/>
<path d="M 163,464L 163,453L 162,453L 162,464Z" style="fill:rgb(93,93,93);"/>
<path d="M 163,487L 163,477L 162,477L 162,487Z" style="fill:rgb(150,150,150);"/>
<path d="M 406,587L 243,587L 243,588L 406,588Z" style="fill:rgb(150,150,150);"/>
<path d="M 287,156L 276,156L 276,157L 287,157Z" style="fill:rgb(150,150,150);"/>
<path d="M 374,253L 277,253L 277,254L 374,254Z" style="fill:rgb(150,150,150);"/>
<path d="M 322,156L 296,156L 296,157L 322,157Z" style="fill:rgb(150,150,150);"/>
<path d="M 334,156L 322,156L 322,157L 334,157Z" style="fill:rgb(150,150,150);"/>
<path d="M 371,156L 334,156L 334,157L 371,157Z" style="fill:rgb(150,150,150);"/>
<path d="M 391,156L 371,156L 371,157L 391,157Z" style="fill:rgb(150,150,150);"/>
<path d="M 409,253L 388,253L 388,254L 409,254Z" style="fill:rgb(150,150,150);"/>
<path d="M 452,156L 391,156L 391,157L 452,157Z" style="fill:rgb(150,150,150);"/>
<path d="M 445,253L 432,253L 432,254L 445,254Z" style="fill:rgb(150,150,150);"/>
<path d="M 464,156L 452,156L 452,157L 464,157Z" style="fill:rgb(150,150,150);"/>
<path d="M 163,497L 163,487L 162,487L 162,497Z" style="fill:rgb(174,174,174);"/>
<path d="M 164,248L 164,241L 163,241L 163,248Z" style="fill:rgb(174,174,174);"/>
<path d="M 254,157L 246,157L 246,158L 254,158Z" style="fill:rgb(174,174,174);"/>
<path d="M 388,253L 374,253L 374,254L 388,254Z" style="fill:rgb(174,174,174);"/>
<path d="M 432,253L 409,253L 409,254L 432,254Z" style="fill:rgb(174,174,174);"/>
<path d="M 459,253L 445,253L 445,254L 459,254Z" style="fill:rgb(174,174,174);"/>
<path d="M 538,500L 530,500L 530,501L 538,501Z" style="fill:rgb(174,174,174);"/>
<path d="M 578,442L 578,433L 577,433L 577,442Z" style="fill:rgb(174,174,174);"/>
<path d="M 256,269L 255,269L 255,327L 256,327Z" style="fill:rgb(198,198,198);"/>
<path d="M 256,356L 256,339L 255,339L 255,356Z" style="fill:rgb(198,198,198);"/>
<path d="M 256,368L 256,356L 255,356L 255,368Z" style="fill:rgb(198,198,198);"/>
<path d="M 256,428L 256,406L 255,406L 255,428Z" style="fill:rgb(198,198,198);"/>
<path d="M 256,339L 256,327L 255,327L 255,339Z" style="fill:rgb(217,217,217);"/>
<path d="M 256,386L 256,368L 255,368L 255,386Z" style="fill:rgb(217,217,217);"/>
<path d="M 256,406L 256,386L 255,386L 255,406Z" style="fill:rgb(217,217,217);"/>
<path d="M 256,439L 256,428L 255,428L 255,439Z" style="fill:rgb(217,217,217);"/>
<path d="M 256,451L 256,439L 255,439L 255,451Z" style="fill:rgb(217,217,217);"/>
<path d="M 256,474L 256,451L 255,451L 255,474Z" style="fill:rgb(217,217,217);"/>
<path d="M 540,581L 526,581L 526,582L 540,582Z" style="fill:rgb(217,217,217);"/>
<path d="M 574,538L 573,538L 573,545L 574,545Z" style="fill:rgb(217,217,217);"/>
<path d="M 163,330L 162,330L 162,350L 163,350Z" style="fill:rgb(130,130,130);"/>
<path d="M 163,364L 162,364L 162,375L 163,375Z" style="fill:rgb(130,130,130);"/>
<path d="M 163,389L 163,375L 162,375L 162,389Z" style="fill:rgb(130,130,130);"/>
<path d="M 163,408L 163,389L 162,389L 162,408Z" style="fill:rgb(130,130,130);"/>
<path d="M 163,477L 163,464L 162,464L 162,477Z" style="fill:rgb(130,130,130);"/>
<path d="M 272,156L 253,156L 253,157L 272,157Z" style="fill:rgb(130,130,130);"/>
<path d="M 293,490L 274,490L 274,491L 293,491Z" style="fill:rgb(130,130,130);"/>
<path d="M 296,156L 287,156L 287,157L 296,157Z" style="fill:rgb(130,130,130);"/>
<path d="M 327,490L 313,490L 313,491L 327,491Z" style="fill:rgb(130,130,130);"/>
<path d="M 327,490L 327,491L 338,491L 338,490Z" style="fill:rgb(130,130,130);"/>
<path d="M 349,490L 338,490L 338,491L 349,491Z" style="fill:rgb(130,130,130);"/>
<path d="M 404,490L 349,490L 349,491L 404,491Z" style="fill:rgb(130,130,130);"/>
<path d="M 449,542L 449,536L 448,536L 448,542Z" style="fill:rgb(130,130,130);"/>
<path d="M 487,156L 464,156L 464,157L 487,157Z" style="fill:rgb(130,130,130);"/>
<path d="M 499,156L 487,156L 487,157L 499,157Z" style="fill:rgb(130,130,130);"/>
<path d="M 493,543L 493,534L 492,534L 492,543Z" style="fill:rgb(130,130,130);"/>
<path d="M 493,543L 492,543L 492,550L 493,550Z" style="fill:rgb(130,130,130);"/>
<path d="M 609,285L 599,285L 599,286L 609,286Z" style="fill:rgb(130,130,130);"/>
<path d="M 610,408L 604,408L 604,409L 610,409Z" style="fill:rgb(130,130,130);"/>
<path d="M 163,270L 163,259L 162,259L 162,270Z" style="fill:rgb(112,112,112);"/>
<path d="M 163,293L 163,270L 162,270L 162,293Z" style="fill:rgb(112,112,112);"/>
<path d="M 163,310L 163,293L 162,293L 162,310Z" style="fill:rgb(112,112,112);"/>
<path d="M 163,364L 163,350L 162,350L 162,364Z" style="fill:rgb(112,112,112);"/>
<path d="M 162,507L 162,496L 161,496L 161,507Z" style="fill:rgb(75,75,75);"/>
<path d="M 163,426L 163,416L 162,416L 162,426Z" style="fill:rgb(75,75,75);"/>
<path d="M 163,453L 163,426L 162,426L 162,453Z" style="fill:rgb(75,75,75);"/>
<path d="M 257,406L 257,387L 256,387L 256,406Z" style="fill:rgb(75,75,75);"/>
<path d="M 257,305L 257,295L 256,295L 256,305Z" style="fill:rgb(47,47,47);"/>
<path d="M 257,319L 257,305L 256,305L 256,319Z" style="fill:rgb(47,47,47);"/>
<path d="M 257,345L 257,319L 256,319L 256,345Z" style="fill:rgb(47,47,47);"/>
<path d="M 257,345L 256,345L 256,357L 257,357Z" style="fill:rgb(47,47,47);"/>
<path d="M 257,367L 257,357L 256,357L 256,367Z" style="fill:rgb(47,47,47);"/>
<path d="M 257,419L 257,410L 256,410L 256,419Z" style="fill:rgb(47,47,47);"/>
<path d="M 257,444L 257,435L 256,435L 256,444Z" style="fill:rgb(47,47,47);"/>
<path d="M 538,582L 530,582L 530,583L 538,583Z" style="fill:rgb(47,47,47);"/>
<path d="M 257,273L 256,273L 256,295L 257,295Z" style="fill:rgb(59,59,59);"/>
<path d="M 257,382L 257,367L 256,367L 256,382Z" style="fill:rgb(59,59,59);"/>
<path d="M 257,435L 257,426L 256,426L 256,435Z" style="fill:rgb(59,59,59);"/>
<path d="M 257,462L 257,444L 256,444L 256,462Z" style="fill:rgb(59,59,59);"/>
<path d="M 162,496L 162,488L 161,488L 161,496Z" style="fill:rgb(32,32,32);"/>
<path d="M 163,259L 163,246L 162,246L 162,259Z" style="fill:rgb(32,32,32);"/>
<path d="M 257,426L 257,419L 256,419L 256,426Z" style="fill:rgb(32,32,32);"/>
<path d="M 162,488L 162,464L 161,464L 161,488Z" style="fill:rgb(8,8,8);"/>
<path d="M 253,156L 244,156L 244,157L 253,157Z" style="fill:rgb(8,8,8);"/>
<path d="M 317,489L 303,489L 303,490L 317,490Z" style="fill:rgb(8,8,8);"/>
<path d="M 339,489L 323,489L 323,490L 339,490Z" style="fill:rgb(8,8,8);"/>
<path d="M 448,536L 448.1406,538.4297L 448.0869,540.8184L 448,542L 448,545L 449,545L 450,544L 450,534L 448,534Z" style="fill:rgb(8,8,8);"/>
<path d="M 575,542L 575,534L 573,534L 573,535L 573.248,536.3633L 573.6777,539.1406L 574,542Z" style="fill:rgb(8,8,8);"/>
<path d="M 387,254L 375,254L 375,255L 387,255Z" style="fill:rgb(19,19,19);"/>
<path d="M 431,254L 410,254L 410,255L 431,255Z" style="fill:rgb(19,19,19);"/>
<path d="M 462,254L 446,254L 446,255L 462,255Z" style="fill:rgb(19,19,19);"/>
<path d="M 632.5718,317.8459L 632.0223,320.6006L 631.2885,323.2107L 630.8197,324.4203L 630.3036,325.5836L 629.742,326.707L 628.529,328.8865L 627.8326,329.916L 626.3496,331.9137L 624.6911,333.7578L 623.7861,334.5715L 622.8443,335.3293L 620.87,336.755L 618.6853,338.0322L 617.4773,338.6062L 614.9717,339.6682L 613.64,340.1051L 610.8891,340.8726L 609.4094,341.1406L 606.3493,341.5347L 604.7668,341.5748L 601.6688,341.4806L 598.8086,341.0488L 596.2979,340.3247L 595.1877,339.8478L 594.1165,339.3243L 593.0712,338.7567L 591.0168,337.5345L 589.0234,336.1377L 588.0665,335.3505L 587.1465,334.5211L 585.3921,332.7868L 583.8169,330.9201L 583.1182,329.9304L 581.7998,327.8807L 580.637,325.6602L 579.644,323.2088L 579.2576,321.8398L 578.6204,318.9531L 578.4402,317.3867L 578.3295,315.7947L 578.2481,312.6021L 578.4514,309.4651L 578.9497,306.5029L 579.3461,305.1438L 579.8091,303.8506L 580.3331,302.6187L 580.9136,301.4408L 581.5476,300.308L 582.9174,298.1168L 584.4812,296.0548L 585.3477,295.0856L 586.2466,294.1581L 587.1719,293.2762L 589.0659,291.6077L 591.0405,290.1398L 593.1136,288.9072L 595.3444,287.9587L 597.754,287.2808L 599,287L 600.4414,286.6025L 601.8828,286.3018L 604.7544,285.9253L 606.1721,285.9634L 608.9878,286.2349L 610.3818,286.5391L 611.7695,286.9071L 613.1426,287.3336L 614.4904,287.8143L 615.8028,288.3466L 617.0731,288.9292L 618.2987,289.5618L 619.4808,290.2439L 621.7638,291.7048L 622.8285,292.5268L 624.8789,294.247L 625.8131,295.172L 627.5627,297.0678L 629.0522,299.0582L 629.6549,300.1211L 630.7304,302.3502L 631.572,304.8031L 632.2134,307.4942L 632.6492,310.3984L 632.8374,313.4189L 632.8066,316.4414ZM 600.175,464.32L 598.8582,464.0117L 597.6114,463.6564L 596.4259,463.258L 595.2909,462.8181L 594.1952,462.335L 593.1289,461.8048L 592.0839,461.2233L 590.0259,459.9521L 588.0267,458.4618L 586.1082,456.7628L 584.3341,454.874L 583.5411,453.8294L 582.0488,451.6442L 580.748,449.3194L 580.2012,448.1305L 579.7058,446.9283L 578.812,444.4839L 578.1174,441.9499L 577.6733,439.3467L 577.5703,436.7539L 577.689,435.4951L 577.855,434.2324L 578.282,431.6938L 578.6078,430.4153L 578.9992,429.1442L 579.4474,427.8939L 579.9426,426.6756L 580.4792,425.4951L 581.0565,424.3529L 581.6765,423.2453L 583.0076,421.0902L 583.7671,420.0672L 585.3785,418.0797L 586.267,417.16L 587.1852,416.2939L 589.0717,414.6773L 590.0654,413.9835L 592.1196,412.6946L 594.3405,411.5807L 596.7875,410.6224L 598.1448,410.234L 600.9414,409.5576L 602.3506,409.3233L 603.7156,409.1524L 606.3643,408.9558L 607.6246,409.0133L 610.1073,409.2867L 612.5059,409.8501L 614.7881,410.6445L 615.8622,411.134L 616.9122,411.665L 617.9451,412.2371L 618.9662,412.8509L 620.9908,414.1634L 621.9842,414.9065L 623.9331,416.4791L 624.8474,417.3465L 626.5732,419.1455L 627.3232,420.0973L 628.0168,421.0641L 629.3054,423.0232L 630.4213,425.0435L 630.9092,426.112L 631.364,427.23L 632.2043,429.5754L 632.8842,432.1446L 633.1054,433.5269L 633.2416,434.9326L 633.3368,437.7581L 633.2137,439.1547L 632.8243,441.8787L 632.5068,443.1544L 632.1464,444.3779L 631.7499,445.5528L 631.3212,446.6852L 630.8598,447.7827L 630.3619,448.8526L 629.8219,449.9016L 628.6461,451.967L 627.263,453.971L 626.4623,454.9302L 625.6151,455.8514L 623.8437,457.6075L 622.8964,458.3953L 620.9683,459.8818L 618.9888,461.1999L 616.956,462.3603L 614.7775,463.3434L 612.2876,464.0947L 610.8424,464.3337L 607.8172,464.6756L 606.2219,464.7291L 603.0951,464.6801L 601.5637,464.5776ZM 501.4768,448.8118L 500.5659,449.668L 499.5576,450.4153L 497.3683,451.6618L 494.8985,452.3686L 492.3145,452.4834L 491.0752,452.2522L 489.9094,451.8923L 487.7363,450.9325L 485.8813,449.5131L 484.3491,447.6409L 483.1716,445.2833L 482.3394,442.4893L 481.7344,439.7656L 481.2344,437.2656L 481,436L 480.3872,435L 479.1938,433L 478.073,431L 477.019,429L 476,427L 474.666,425L 474,424L 473.2344,423L 471.7344,421L 471,420L 470,419L 469,418L 468,417L 467,416L 466,415L 465,414L 463,412.5156L 461,411L 459,409.5156L 457,408L 455,407L 453,406L 451,405L 449,404L 446,403L 443.1392,402.0291L 441.8708,401.5463L 439.4904,400.498L 438.4541,399.8463L 437.5016,399.0964L 436.6403,398.2429L 435.1201,396.3383L 434.5875,395.2178L 434.194,394.0557L 433.9473,392.8777L 433.753,390.5316L 433.9504,389.4009L 434.616,387.2345L 435.1947,386.2637L 436.5438,384.4623L 438.2258,382.9554L 440.1701,381.7627L 442.3569,380.8829L 444.7556,380.2598L 446,380L 448.4688,379L 451,378L 453,377L 455,376L 457,375L 459,373.666L 460,373L 462,371.666L 463,371L 464,370L 465,369L 466,368L 467,367L 468,366L 469,365L 470,364L 471,363L 472,362L 472.666,361L 474,359L 474.666,358L 476,356L 476.502,355L 477.5195,353L 478.5898,351L 479.7539,349L 481,347L 481.2676,345.7051L 481.5679,344.3955L 481.9065,343.0752L 482.2886,341.7548L 483.1526,339.1418L 484.2478,336.6479L 485.6453,334.4084L 487.4205,332.5717L 488.5169,331.924L 489.7016,331.4343L 490.9495,331.1061L 492.2323,330.9404L 493.5236,330.9362L 496.0773,331.2461L 497.2845,331.7131L 499.5567,332.9383L 501.4903,334.7023L 503.0089,336.8948L 504.1293,339.3757L 505,342L 506,345L 507,348L 508,350L 509,352L 510,354L 511,356L 512,358L 513.334,360L 514,361L 515,362L 516,363L 517,364L 518,365L 519,366L 520,367L 521,368L 522,369L 523,370L 524,371L 526,372.4844L 528,374L 530,375L 532,376L 534,377L 536,378L 537.2656,378.5L 539.7656,379.5L 541,380L 542.5,380.5L 545.2061,381.4419L 546.3545,381.936L 548.5046,383.0607L 549.4166,383.7827L 551.0574,385.4191L 551.6826,386.4282L 552.1921,387.5166L 552.5751,388.662L 552.824,389.8407L 553.045,392.2187L 552.8773,393.3874L 552.5755,394.5101L 551.7189,396.636L 550.3817,398.4769L 548.6034,399.9626L 547.5169,400.5293L 545.1535,401.5683L 543.7959,402.0443L 540.9692,403.0101L 538,404L 536,405L 534,406L 532,407L 530,408L 528,409.334L 527,410L 525,411.334L 524,412L 523,413L 522,414L 521,415L 520,416L 519,417L 518,418L 517,419L 516,420L 515.2314,421L 513.6509,423L 512,425L 511,427L 510,429L 509,431L 508,433L 507,435L 506,437L 505.334,439.668L 505,441L 504.6768,442.2095L 503.9242,444.5741L 502.8898,446.797ZM 256,478L 257,480L 258,482L 259,483L 260,484L 261,485L 262,486L 263,487L 264,488L 266,489L 268,490L 303,490L 306.0547,489.5703L 309.2344,489.3359L 312.4434,489.4092L 315.5137,489.7646L 317,490L 323,490L 324.5039,489.7559L 327.6445,489.3652L 331,489.2188L 334.3555,489.3652L 337.4961,489.7559L 339,490L 384,490L 387.9961,490.002L 391.957,490.0215L 395.7813,490.1094L 399.3125,490.3438L 402.4922,490.7539L 404,491L 407.0225,491.4985L 408.4741,491.7903L 411.3013,492.4353L 412.6377,492.8184L 415.2251,493.6375L 417.6328,494.5483L 419.8643,495.5308L 420.9141,496.0612L 421.9465,496.618L 423.9878,497.7891L 425.9982,499.0821L 426.9991,499.7903L 428.998,501.252L 430.9785,502.7932L 432.8906,504.4238L 434.6563,506.1777L 436.2461,508.0444L 437,509L 438.6123,511L 440.0796,513L 440.7141,514L 441.3215,515.0215L 441.9189,516.0884L 443.1058,518.3398L 444.263,520.8315L 445.3256,523.5068L 445.7761,524.8789L 446.5918,527.5869L 447.2441,530.1958L 447.7656,532.7344L 448,534L 448.7734,536.8789L 449.0938,539.7266L 448.7734,542.4414L 448,545L 447.7324,546.293L 447.1289,548.9043L 446.3691,551.5625L 445.4521,554.2275L 444.9297,555.5371L 444.3821,556.8274L 443.2498,559.3513L 442.0596,561.7285L 440.8101,563.9268L 440.1331,564.9587L 439.427,565.9771L 438.6943,566.9874L 437.9349,567.9931L 436.3596,569.9975L 434.6668,571.9785L 433.7617,572.9346L 432.8327,573.854L 430.9365,575.6079L 429.9587,576.3955L 427.9883,577.8818L 425.9975,579.2021L 424.9986,579.7936L 423.9777,580.3719L 422.9112,580.9503L 420.6562,582.1148L 419.3967,582.6992L 418.0825,583.2724L 415.3879,584.3772L 412.6387,585.3592L 409.9419,586.1504L 408.6245,586.448L 407.2757,586.7288L 404.4557,587.2509L 401.3125,587.6563L 397.7813,587.8906L 393.957,587.9785L 389.9961,587.998L 386,588L 263,588L 259.0039,587.998L 255.043,587.9785L 251.2188,587.8906L 247.6875,587.6563L 244.5078,587.2461L 243,587L 239.7617,586.8926L 236.5625,586.6543L 233.5098,586.2178L 230.6289,585.5957L 227.8184,584.8369L 225,584L 223.6133,583.6128L 220.8506,582.8062L 219.4988,582.3666L 216.8672,581.4539L 215.6387,580.9713L 213.2798,579.9935L 212.187,579.4963L 210.0583,578.4995L 209.0357,577.9997L 208.0215,577.4999L 207.0129,576.999L 206.0076,576.4936L 204.0013,575.4609L 202.0001,574.3481L 200,573.0796L 198,571.6123L 196,570L 195,569.2578L 194,568.5067L 193,567.7441L 192,566.9653L 190.002,565.3658L 188.0215,563.6674L 186.1094,561.8566L 184.3438,559.9512L 182.7539,557.9896L 182,557L 181.1611,556L 179.5439,554L 178.0557,552L 177.3643,551L 176.6833,550L 176.0093,549L 175.3426,548L 174.0308,546L 173.4049,545L 172.1963,543L 171.0731,540.9961L 170.5462,539.9785L 169.5112,537.8887L 169.0065,536.7617L 168.5037,535.5732L 167.5024,533.0771L 166.5215,530.3789L 165.6113,527.5742L 164.8633,524.7437L 164.3438,521.8901L 164,519L 163.5898,517.8203L 162.8633,515.2734L 162.3633,512.2734L 162.0898,508.8203L 162,507L 161.7539,505.4922L 161.3438,502.3125L 161.1094,498.7813L 161.0215,494.957L 161.002,490.9961L 161,487L 161,484L 161.002,480.0039L 161.0215,476.043L 161.1094,472.2188L 161.3438,468.6875L 161.7539,465.5078L 162,464L 162,266L 162.002,262.0039L 162.0215,258.043L 162.1094,254.2188L 162.3438,250.6875L 162.7539,247.5078L 163,246L 163.0879,244.4492L 163.2148,242.9219L 163.5547,239.9297L 164.0566,237.0742L 164.6729,234.3418L 165,233L 165.4946,230.4658L 166.0762,227.9023L 166.7847,225.2939L 167.6128,222.708L 168.0698,221.4629L 168.5416,220.2156L 169.5067,217.7185L 170.5137,215.2207L 171.584,212.7383L 172.752,210.3223L 174,208L 174.5176,207L 175.5898,205L 176.1719,204L 177.3838,202L 178.6729,200L 179.3376,199L 180.0106,198L 181.3845,196L 182.1133,195L 182.8755,194L 183.674,193L 184.5083,192L 185.3761,191L 186.2733,190L 188.1172,188L 189.0794,187L 190.0531,186L 192.017,184.002L 194.0043,182.0215L 196.0009,180.1094L 198.0001,178.3438L 200,176.7539L 201,176L 202,175.2363L 204,173.7607L 206,172.4023L 208,171.1631L 210,170L 211.0039,169.3872L 213.0391,168.1938L 215.1797,167.073L 217.5078,166.019L 220,165L 221.0898,164.5L 222.2266,164L 223.4204,163.5L 225.9224,162.502L 228.625,161.5215L 231.4609,160.6094L 234.397,159.8438L 237.4458,159.2539L 239,159L 240.3633,158.752L 243.1406,158.3223L 246,158L 249.0156,156.9609L 252.3594,156.3047L 256.0781,156.0547L 260.0078,156.0039L 264,156L 479,156L 482.9961,156.002L 486.957,156.0215L 490.7813,156.1094L 494.3125,156.3438L 497.4922,156.7539L 499,157L 502.334,157.3877L 505.5225,157.9204L 507.0313,158.2861L 509.981,159.0955L 511.3818,159.5591L 514.0862,160.515L 516.5759,161.5214L 517.7119,162.0557L 518.8082,162.6148L 520.9409,163.7886L 522.9869,165.082L 523.9926,165.7903L 524.9958,166.5211L 525.9976,167.2719L 526.9987,168.0437L 528.9979,169.6354L 529.9882,170.484L 531.9336,172.2381L 533.7617,174.0963L 535.3857,176.0309L 536.7734,178.0074L 538,180L 538.6128,181L 539.8062,183L 540.3666,184L 541.4519,186.0039L 542.4673,188.043L 543.3889,190.2188L 544.1561,192.6875L 544.7461,195.5078L 545,197L 545.2656,198.4688L 545.7656,201.4688L 546.1582,204.332L 546.3164,207L 546.1582,209.668L 546,211L 545.6758,213.8633L 545.4478,215.2607L 544.9072,218.0332L 544.5588,219.4097L 543.7981,222.1567L 543.3623,223.5054L 542.4536,226.1333L 541.9712,227.3616L 541.4824,228.5409L 540.9884,229.677L 540.4873,230.7772L 539.9735,231.849L 539.4386,232.8993L 538.8728,233.9339L 537.6619,235.9804L 536.9644,236.988L 536.2144,237.9927L 535.4153,238.9956L 533.7299,240.9972L 531.8961,242.9784L 529.9678,244.8906L 527.9923,246.6562L 525.9988,248.2461L 525,249L 524,249.7656L 522,251.2656L 521,252L 520,253L 519,254L 518,255L 517,256L 516,257L 515,258L 514,259L 513,260L 512,261L 511,262L 510,263L 509.334,264L 508,266L 507,268L 506,270L 505.5,271L 504.3867,273.1709L 503.7332,274.2729L 502.3228,276.3049L 501.4952,277.1322L 499.6786,278.5847L 497.5072,279.6296L 496.2432,279.9295L 493.6176,280.2672L 490.9463,280.0616L 488.5058,279.3221L 486.4541,278.1089L 484.7744,276.4429L 483.3633,274.3105L 482.1309,271.7715L 481,269L 480,267L 478.666,265L 478,264L 477,263L 476,262L 475,261L 474,260L 473,259L 472,258L 471,257.334L 469,256L 467,255L 464.332,254.334L 463,254L 462,254L 460.4961,254.2441L 457.3555,254.6348L 454,254.7813L 450.6445,254.6348L 447.5039,254.2441L 446,254L 431,254L 429.4922,254.2461L 427.918,254.4512L 424.6602,254.7715L 421.2559,254.9131L 417.8516,254.8789L 414.5762,254.6553L 411.4922,254.2461L 410,254L 387,254L 385.5313,254.2266L 382.5313,254.5469L 379.4688,254.5469L 376.4688,254.2266L 375,254L 270,254L 267,255L 265,256L 263,257.334L 262,258L 260,260L 259.334,261L 258,263L 257,265L 256,268L 256,273L 256.2461,274.5078L 256.6563,277.6875L 256.8906,281.2188L 256.9785,285.043L 256.998,289.0039L 257,293L 257,362L 256.998,365.9961L 256.9785,369.957L 256.8906,373.7813L 256.6563,377.3125L 256.2461,380.4922L 256,382L 256,387L 256.2461,388.4922L 256.6543,391.5742L 256.8691,394.832L 256.8691,398.168L 256.6543,401.4258L 256.2461,404.5078L 256,406L 256,410L 256.2461,411.5078L 256.6563,414.6875L 256.8906,418.2188L 256.9785,422.043L 256.998,426.0039L 257,430L 257,442L 256.998,445.9961L 256.9785,449.957L 256.8906,453.7813L 256.6563,457.3125L 256.2461,460.4922L 256,462ZM 573.0059,547.8887L 572.4521,550.4521L 572.1187,551.6187L 571.3687,553.9321L 570.4585,556.2651L 569.4102,558.6123L 568.2383,560.854L 566.9355,562.9614L 566.2217,563.9775L 564.7568,565.981L 563.229,567.8962L 561.6187,569.6582L 559.8706,571.2598L 557.978,572.7773L 556.989,573.5083L 555,574.918L 552.9961,576.2095L 550.9609,577.3662L 548.8203,578.3774L 547.6563,578.8088L 545.2324,579.613L 542.6543,580.3269L 540,581L 538.8594,581.3906L 537.6758,581.709L 535.2246,582.1592L 532.6348,582.2061L 529.9805,581.877L 527.3242,581.3164L 526,581L 524.7109,580.7461L 522.1523,580.1543L 520.8896,579.7627L 519.6313,579.3218L 517.1274,578.3501L 514.6714,577.2124L 512.3188,575.9272L 511.2131,575.2178L 509.0652,573.7524L 507.031,572.2078L 505.1094,570.5762L 503.3438,568.8223L 502.5488,567.8889L 501.7764,566.9333L 500.2764,564.9889L 499.582,563.9944L 498.2668,561.9961L 497.6796,560.9785L 496.5574,558.8887L 495.5149,556.6387L 494.5233,554.1621L 493.6115,551.4629L 492.8672,548.5488L 492.627,546.9648L 492.3047,543.6904L 492.3047,540.3086L 492.626,537.0254L 492.9268,535.4844L 493.2644,534.0005L 493.9836,531.1577L 494.3761,529.8645L 494.7835,528.6317L 495.6339,526.2725L 496.5657,524.0923L 497.0834,523.0574L 497.6331,522.0352L 498.2173,521.0213L 498.8387,520.0127L 499.4998,519.0075L 500.905,517.0033L 502.479,515.0216L 503.3464,514.0655L 505.1454,512.2266L 507.049,510.5557L 508.0307,509.8062L 509.019,509.0859L 511.0081,507.6929L 512.0239,507.0402L 514.1078,505.7819L 516.334,504.6331L 517.541,504.1278L 520.0391,503.1931L 522.6895,502.4065L 525.4941,501.761L 528.4697,501.2363L 529.9009,501.0391L 532.668,500.7637L 535.3438,500.7813L 536.6807,500.9517L 539.3525,501.4067L 540.6899,501.7224L 542.0247,502.0653L 544.6704,502.804L 547.2288,503.6539L 549.6333,504.636L 551.8704,505.765L 552.9227,506.3774L 553.9551,507.0028L 554.9745,507.651L 556.9949,509.0125L 558.9785,510.5313L 559.9346,511.3813L 561.7734,513.1561L 563.4443,515.0512L 564.1938,516.0319L 564.9141,517.0197L 566.3071,519.0082L 567.6125,521.0397L 568.8276,523.1797L 569.387,524.3438L 570.4551,526.7129L 571.4116,529.0996L 572.248,531.5039L 573,534L 573.4043,535.332L 573.6895,536.666L 574.0137,539.3633L 573.9004,542.1582L 573.7158,543.6104L 573.2686,546.4756ZM 47,713.5776L 49,715.2444L 51,717L 53,718.4844L 55,720L 56,720.666L 58,722L 59,722.666L 61,724L 62,724.502L 64,725.5195L 66,726.5898L 68,727.7539L 70,729L 72.4521,730L 74.7852,731L 77,732L 80,733L 83,734L 86,735L 88.668,735.666L 90,736L 91.2656,736.2344L 93.7656,736.7344L 95,737L 96.5313,737.2344L 99.5313,737.7344L 101,738L 650,738L 651.4688,737.7344L 654.4688,737.2344L 656,737L 657.2344,736.7344L 659.7344,736.2344L 661,736L 662.332,735.666L 665,735L 668,734L 671,733L 674,732L 676.1758,731L 678.5078,730L 681,729L 682,728.3872L 684,727.1938L 686,726.073L 688,725.019L 690,724L 692,722.666L 693,722L 695,720.666L 696,720L 697,719.2344L 699,717.7344L 700,717L 701,716.0879L 703,714.3418L 705,712.7539L 706,712L 707,711L 708,710L 709,709L 710,708L 711,707L 712,706L 713.5776,704L 715.2444,702L 717,700L 718.4844,698L 720,696L 720.666,695L 722,693L 722.666,692L 724,690L 724.502,689L 725.5195,687L 726.5898,685L 727.7539,683L 729,681L 730,678.5479L 731,676.2148L 732,674L 733,671L 734,668L 735,665L 735.666,662.332L 736,661L 736.2344,659.7344L 736.7344,657.2344L 737,656L 737.2344,654.7344L 737.7344,652.2344L 738,651L 738,100L 737.7344,98.7656L 737.2344,96.2656L 737,95L 736.7344,93.7656L 736.2344,91.2656L 736,90L 735.666,88.668L 735,86L 734,83L 733,80L 732,77L 731,74.8242L 730,72.4922L 729,70L 728.3872,69L 727.1938,67L 726.073,65L 725.019,63L 724,61L 722.666,59L 722,58L 720.666,56L 720,55L 719.2344,54L 717.7344,52L 717,51L 716.0879,50L 714.3418,48L 712.7539,46L 712,45L 711,44L 710,43L 709,42L 708,41L 707,40L 706,39L 704,37.4224L 702,35.7556L 700,34L 698,32.5156L 696,31L 695,30.334L 693,29L 692,28.334L 690,27L 689,26.498L 687,25.4805L 685,24.4102L 683,23.2461L 681,22L 678.5479,21L 676.2148,20L 674,19L 671,18L 668,17L 665,16L 662.332,15.334L 661,15L 659.7344,14.7656L 657.2344,14.2656L 656,14L 654.4688,13.7656L 651.4688,13.2656L 650,13L 101,13L 99.5313,13.2656L 96.5313,13.7656L 95,14L 93.7656,14.2656L 91.2656,14.7656L 90,15L 88.668,15.334L 86,16L 83,17L 80,18L 77,19L 74.8242,20L 72.4922,21L 70,22L 69,22.6128L 67,23.8062L 65,24.927L 63,25.981L 61,27L 59,28.334L 58,29L 56,30.334L 55,31L 54,31.7656L 52,33.2656L 51,34L 50,34.9121L 48,36.6582L 46,38.2461L 45,39L 44,40L 43,41L 42,42L 41,43L 40,44L 39,45L 37.4224,47L 35.7556,49L 34,51L 32.5156,53L 31,55L 30.334,56L 29,58L 28.334,59L 27,61L 26.4824,62L 25.4102,64L 24.2461,66L 23,68L 22,70L 21,72.4521L 20,74.7852L 19,77L 18,80L 17,83L 16,86L 15.334,88.668L 15,90L 14.7656,91.2656L 14.2656,93.7656L 14,95L 13.7656,96.2656L 13.2656,98.7656L 13,100L 13,651L 13.2656,652.2344L 13.7656,654.7344L 14,656L 14.2656,657.2344L 14.7656,659.7344L 15,661L 15.334,662.332L 16,665L 17,668L 18,671L 19,674L 20,676.1758L 21,678.5078L 22,681L 23,683L 24.2256,685L 25.3872,687L 26.4731,689L 27,690L 28.334,692L 29,693L 30.334,695L 31,696L 31.7656,697L 33.2656,699L 34,700L 34.9121,701L 36.6582,703L 38.2461,705L 39,706L 40,707L 41,708L 42,709L 43,710L 44,711L 45,712Z" style="fill:rgb(0,0,0);"/>
<path d="M 0,0L 0,750L 750,750L 750,0ZM 14.7344,96.2344L 15,95L 15.2461,93.7324L 15.5122,92.4541L 16.0957,89.8594L 16.7944,87.1689L 17.2048,85.7744L 18.074,82.9727L 19.0193,80.2104L 20.0032,77.6089L 21.0002,75.2261L 21.5001,74.113L 22.5703,71.752L 23.752,69.3223L 25,67L 25.5176,66L 26.5898,64L 27.1719,63L 27.7778,62L 28.4036,61L 29.6907,59L 31.051,57L 32.4927,55L 34.0046,53L 35.5776,51L 37.2444,49L 39,47L 40.6072,45.0215L 42.3017,43.1094L 44.1175,41.3438L 46.0278,39.7539L 47,39L 48,38.0879L 50,36.3418L 52,34.7539L 53,34L 55,32.4902L 56,31.7676L 57,31.0635L 58,30.3765L 60,29.0383L 61,28.4091L 63,27.1967L 65,26.0731L 66,25.5461L 68.083,24.4679L 70.3779,23.3099L 71.583,22.7155L 73.9648,21.5703L 75.1545,21.04L 76.3796,20.5225L 78.9176,19.5044L 81.6211,18.5195L 84.4219,17.5898L 85.8235,17.1719L 88.5718,16.3975L 91.1936,15.7549L 93.7344,15.2344L 96.4688,14.7344L 99.4688,14.2344L 101,14L 102.5078,13.7539L 105.6875,13.3438L 109.2188,13.1094L 113.043,13.0215L 117.0039,13.002L 121,13L 630,13L 633.9961,13.002L 637.957,13.0215L 641.7813,13.1094L 645.3125,13.3438L 648.4922,13.7539L 650,14L 651.5313,14.2344L 654.5313,14.7344L 655.8984,14.9844L 657.2168,15.2383L 658.5205,15.5083L 661.1406,16.0957L 663.8311,16.7944L 665.2256,17.2048L 668.0273,18.074L 670.7896,19.0193L 672.0903,19.5112L 674.6001,20.5115L 677.0012,21.5704L 679.4482,22.7363L 680.7241,23.3682L 683,24.502L 685,25.5195L 687,26.5898L 688,27.1719L 689,27.7778L 690,28.4036L 692,29.6907L 694,31.051L 696,32.4927L 698,34.0046L 700,35.5776L 702,37.2444L 704,39L 705.9785,40.6072L 707.8906,42.3017L 709.6563,44.1175L 711.2461,46.0278L 712,47L 712.9121,48L 714.6582,50L 716.2461,52L 717,53L 718.5098,55L 719.2324,56L 719.9365,57L 720.6235,58L 721.9617,60L 722.5909,61L 723.8033,63L 724.9269,65L 725.4539,66L 726.5321,68.083L 727.6901,70.3779L 728.2845,71.583L 729.4297,73.9648L 729.96,75.1545L 730.4775,76.3796L 731.4956,78.9176L 732.4805,81.6211L 733.4102,84.4219L 733.8281,85.8235L 734.6025,88.5718L 735.2451,91.1936L 735.7656,93.7344L 736,95L 736.2656,96.2344L 736.7656,98.7344L 737.2461,101.5078L 737.6563,104.6875L 737.8906,108.2188L 737.9785,112.043L 737.998,116.0039L 738,120L 738,631L 737.998,634.9961L 737.9785,638.957L 737.8906,642.7813L 737.6563,646.3125L 737.4512,647.9023L 737.2324,649.3945L 736.7725,652.209L 736.2656,654.7656L 736,656L 735.7539,657.2676L 735.4878,658.5459L 734.9043,661.1406L 734.2056,663.8311L 733.7952,665.2256L 732.926,668.0273L 731.9807,670.7896L 731.4888,672.0903L 730.4885,674.6001L 729.4296,677.0012L 728.2637,679.4482L 727.6318,680.7241L 726.498,683L 725.4805,685L 724.4102,687L 723.8281,688L 723.2222,689L 722.5964,690L 721.3093,692L 719.949,694L 718.5073,696L 716.9954,698L 715.4224,700L 713.7556,702L 712,704L 710.3928,705.9785L 708.6983,707.8906L 706.8825,709.6563L 704.9722,711.2461L 704,712L 703,712.9121L 701,714.6582L 699,716.2461L 698,717L 696,718.5098L 695,719.2324L 694,719.9365L 693,720.6235L 691,721.9617L 690,722.5909L 688,723.8033L 686,724.9269L 685,725.4539L 682.917,726.5321L 680.6221,727.6901L 679.417,728.2845L 677.0352,729.4297L 675.8455,729.96L 674.6204,730.4775L 672.0824,731.4956L 669.3789,732.4805L 666.5781,733.4102L 665.1765,733.8281L 662.4282,734.6025L 659.8064,735.2451L 657.2656,735.7656L 654.5313,736.2656L 651.5313,736.7656L 650,737L 648.4922,737.2461L 645.3125,737.6563L 641.7813,737.8906L 637.957,737.9785L 633.9961,737.998L 630,738L 121,738L 117.0039,737.998L 113.043,737.9785L 109.2188,737.8906L 105.6875,737.6563L 102.5078,737.2461L 101,737L 99.4688,736.7656L 96.4688,736.2656L 95.1016,736.0156L 93.7832,735.7617L 92.4795,735.4917L 89.8594,734.9043L 87.1689,734.2056L 85.7744,733.7952L 82.9727,732.926L 80.2104,731.9807L 78.9097,731.4888L 76.3999,730.4885L 73.9988,729.4296L 71.5518,728.2637L 70.2759,727.6318L 68,726.498L 66,725.4805L 64,724.4102L 63,723.8281L 62,723.2222L 61,722.5964L 59,721.3093L 57,719.949L 55,718.5073L 53,716.9954L 51,715.4224L 49,713.7556L 47,712L 45.0215,710.3928L 43.1094,708.6983L 41.3438,706.8825L 39.7539,704.9722L 39,704L 38.0879,703L 36.3418,701L 34.7539,699L 34,698L 32.4902,696L 31.7676,695L 31.0635,694L 30.3765,693L 29.0383,691L 27.7798,689L 26.613,687L 25.5269,685L 25,684L 24.376,682.8594L 23.1611,680.4961L 22.5806,679.248L 21.5,676.9102L 21,675.7734L 20.5,674.5796L 19.502,672.0776L 18.5195,669.3789L 17.5898,666.5781L 17.1719,665.1765L 16.3975,662.4282L 15.7549,659.8064L 15.2344,657.2656L 15,656L 14.7344,654.7656L 14.2344,652.2656L 13.7539,649.4922L 13.3438,646.3125L 13.1094,642.7813L 13.0215,638.957L 13.002,634.9961L 13,631L 13,120L 13.002,116.0039L 13.0215,112.043L 13.1094,108.2188L 13.3438,104.6875L 13.7754,101.3984L 14.0674,99.7539Z" style="fill:rgb(254,254,254);"/>
<path d="M 547,203L 546.7344,201.5313L 546.2344,198.5313L 546,197L 545.7344,195.5313L 545.2344,192.5313L 545,191L 544,189L 543,187L 542,185L 541,183L 540,181L 539.376,180L 538.1611,178L 537,176L 536,175L 535,174L 534,173L 533,172L 532,171L 531,170L 530,169L 529,168L 527,166.5156L 525,165L 524,164.334L 522,163L 520,162L 518,161L 516,160L 513,159L 510,158L 239,158L 237.5313,158.2656L 234.5313,158.7656L 233,159L 230,160L 227,161L 224,162L 221.8242,163L 219.4922,164L 217,165L 215,166L 213,167L 211,168L 210,168.624L 208,169.8389L 206,171L 204,172.334L 203,173L 202,173.7656L 200,175.2656L 199,176L 197,177.6777L 195,179.248L 194,180L 193.2095,180.9805L 191.5762,182.8906L 189.8223,184.6563L 187.9556,186.2461L 187,187L 185.4224,189L 183.7556,191L 182,193L 181.334,194L 180,196L 179.334,197L 178,199L 177.334,200L 176,202L 175.4824,203L 174.4102,205L 173.2461,207L 172,209L 171,211L 170.5,212.2656L 169.5,214.7656L 169,216L 168.5,217.2656L 167.5,219.7656L 167,221L 166,224L 165.334,226.668L 165,228L 164.5098,230.5313L 163.9551,233.082L 163.3281,235.6836L 163,237L 163,241L 163.1582,242.166L 163.3164,244.5L 163.1582,246.834L 163,248L 163,310L 163.4473,313.0313L 163.7305,316.1836L 163.7158,319.4121L 163.3008,322.5625L 162.4912,325.5488L 162,327L 162,330L 162.2461,331.5078L 162.6563,334.6875L 162.8906,338.2188L 162.9785,342.043L 162.998,346.0039L 163,350L 163,418L 163.2461,419.5078L 163.6563,422.6875L 163.8906,426.2188L 163.9785,430.043L 163.998,434.0039L 164,438L 164,442L 163.998,445.9961L 163.9785,449.957L 163.8906,453.7813L 163.6563,457.3125L 163.2461,460.4922L 163,462L 163,486L 162.998,489.9961L 162.9785,493.957L 162.8906,497.7813L 162.6563,501.3125L 162.2461,504.4922L 162,506L 162,517L 162.4102,518.1445L 163.1387,520.543L 163.6563,523.1797L 164,526L 165,529L 166,532L 167,535L 168,537L 169,539L 170,541L 171,543L 172,545L 173.334,547L 174,548L 175.334,550L 176,551L 177.334,553L 178,554L 179.6777,556L 181.248,558L 182,559L 183,560L 184,561L 185,562L 186,563L 187,564L 188,565L 189,566L 190,567L 192,568.4844L 193,569.2422L 195,570.7686L 197,572.3491L 199,574L 201,575L 203,576L 205,577L 207,578L 209,579L 211,580L 213,581L 215,582L 218,583L 221,584L 222.3887,584.376L 225.1816,585.1611L 228,586L 230.668,586.666L 232,587L 411,587L 414,586L 417,585L 420,584L 422,582.7744L 424,581.6128L 426,580.5269L 427,580L 429,578.666L 430,578L 431,577L 432,576L 433,575L 434,574L 435,573L 436,572L 437,571L 438,570L 439.4844,568L 441,566L 441.5703,565L 442.752,563L 444,561L 444.5,559.7344L 445.5,557.2344L 446,556L 447,553L 448,550L 448,529L 447.666,527.668L 447,525L 446,522L 445,519L 443.7744,517L 442.6128,515L 441.5269,513L 441,512L 439.3223,510L 437.752,508L 437,507L 436,506L 435,505L 434,504L 433,503L 432,502L 430,500.5156L 428,499L 427,498.334L 425,497L 423,496L 421,495L 419,494L 417,493L 414,492L 411.332,491.334L 410,491L 333,491L 329.0039,490.998L 325.043,490.9785L 321.2188,490.8906L 317.6875,490.6563L 314.5078,490.2461L 313,490L 293,490L 291.5078,490.2461L 288.4258,490.6543L 285.168,490.8691L 281.832,490.8691L 278.5742,490.6543L 277.0332,490.4502L 275.5166,490.2231L 274.0327,489.9724L 272.5974,489.6893L 271.2227,489.3629L 269.9131,488.9826L 268.6667,488.5399L 266.2889,487.5186L 265.2042,486.8682L 263.1282,485.4336L 262.1908,484.5971L 260.4376,482.8352L 258.9477,480.9088L 258.345,479.858L 257.2696,477.6446L 256.428,475.1881L 255.7856,472.4354L 255.3459,469.3086L 255.1094,465.7813L 255.0215,461.957L 255.002,457.9961L 255,454L 255,289L 255.002,285.0039L 255.0234,281.043L 255.1309,277.2227L 255.4531,273.7266L 255.7754,272.207L 256.1709,270.7773L 256.6289,269.415L 257.6611,266.8018L 258.9248,264.3906L 259.6755,263.2791L 261.2932,261.1587L 262.214,260.2097L 264.1666,258.4417L 266.347,256.9501L 268.7538,255.7638L 271.3615,254.9023L 274.1309,254.3501L 277,254L 278.5078,253.7539L 281.6875,253.3438L 285.2188,253.1094L 289.043,253.0215L 293.0039,253.002L 297,253L 439,253L 442.9961,253.002L 446.957,253.0215L 450.7813,253.1094L 452.5469,253.2266L 455.8887,253.5557L 457.3877,253.8062L 460.2637,254.3701L 462.9365,255.0513L 464.1904,255.4595L 465.3997,255.9156L 466.5656,256.4239L 467.6926,256.9861L 469.8792,258.2191L 471.9434,259.6666L 472.9133,260.4895L 473.8413,261.3526L 475.6056,263.1502L 476.3942,264.119L 477.8817,266.1418L 479.2021,268.3723L 480.385,270.8644L 481.4731,273.5899L 482,275L 483.334,277L 484,278L 485,279L 486,279.666L 488,281L 498,281L 500,280L 502,279L 503,278L 504,277L 505,275L 505.502,273.7744L 506.5195,271.3877L 507.0547,270.2668L 507.6155,269.1796L 508.2067,268.1185L 508.8323,267.0768L 509.496,266.049L 510.2002,265.0309L 510.9459,264.0192L 511.7324,263.0118L 512.5575,262.0072L 514.277,260.0034L 516.1179,258.0217L 518.0417,256.1094L 520.0118,254.3438L 522.0022,252.7539L 523,252L 524,251.2344L 526,249.7344L 527,249L 529,247.3223L 531,245.752L 532,245L 532.7904,244L 534.4221,242L 536.1666,240L 538,238L 539,236L 540,234L 541,232L 542,230L 543,228L 544,225L 545,222L 545.666,219.332L 546,218L 546.3223,215.1406L 546.752,212.3633L 547,211Z" style="fill:rgb(254,254,254);"/>
<path d="M 554,396L 554,387L 552.666,385L 552,384L 551,383L 550,382L 548,381L 545.3125,380.2256L 542.708,379.3872L 541.4629,378.9302L 540.2244,378.4584L 537.7673,377.4933L 536.5775,376.9957L 534.2668,375.9883L 532.0923,374.9346L 530.0225,373.7734L 529.0129,373.1123L 528.0074,372.4154L 527.0042,371.6879L 526.0023,370.9314L 525.0013,370.1453L 524.0007,369.3292L 522.002,367.6374L 520.0215,365.8327L 519.0654,364.8846L 518.146,363.9216L 516.3921,361.9734L 515.6045,360.9831L 514.1182,358.9957L 513.458,357.9974L 512.2067,355.9995L 511.0741,353.996L 510.5467,352.9785L 509.5112,350.8887L 508.5037,348.6387L 507.5197,346.166L 506.5898,343.5059L 505.7539,340.7598L 505,338L 504,335L 503,334L 502,333L 501,332L 500,331L 499,330L 496.332,329.334L 495,329L 492,329L 490.668,329.334L 488,330L 487,331L 486,332L 485,333L 484,334L 483,335L 482.624,336.3887L 481.8389,339.1816L 481,342L 480.3047,344.4561L 479.8877,345.6196L 479.4385,346.7417L 478.4954,348.9163L 477.4839,350.9827L 476.4109,352.9983L 475.8285,353.9991L 475.2224,354.9996L 474.5953,355.9998L 473.9477,356.9999L 473.2771,357.9999L 472.5794,359L 471.8506,360L 471.0876,361L 469.4909,362.998L 467.7561,364.9785L 466.8295,365.9346L 464.936,367.7734L 462.9808,369.4443L 461.9882,370.1938L 460.9929,370.9141L 459.9957,371.6106L 458.9974,372.2852L 456.9956,373.59L 454.9609,374.8033L 452.8203,375.9269L 450.4922,376.981L 449.2461,377.4905L 446.9121,378.4121L 444.6582,379.1582L 442.2461,379.7461L 441,380L 439,381L 437,382L 436,383L 435,384L 434,385L 433,387L 432,389L 432,393L 433,396L 434,398L 435,399L 436,400L 437,401L 439,402L 440.3867,402.3872L 443.1494,403.1938L 444.5012,403.6334L 447.1328,404.5461L 448.3613,405.0297L 450.7202,406.0182L 452.9059,407.0663L 454.9774,408.2266L 456.9966,409.5488L 457.9983,410.2744L 458.9991,411.0044L 459.9996,411.7444L 460.9998,412.4944L 462.998,414.0186L 464.9785,415.6083L 466.8906,417.3017L 468.6563,419.1175L 470.2461,421.0278L 471.7637,423L 472.5015,424L 473.918,426L 474.5647,427L 475.7986,429L 476.9265,431L 477.9866,433.0137L 479.0066,435.0977L 479.9314,437.3359L 480.6777,439.793L 481.2656,442.5098L 481.7656,445.4688L 482,447L 482.7656,448L 484.2656,450L 485,451L 486,452L 488,453L 491,454L 495,454L 496.332,453.666L 499,453L 501,452L 503,450L 504,448L 505,446L 505.2461,444.7363L 505.5122,443.4756L 506.0957,440.9707L 506.4451,439.7515L 507.2048,437.3779L 507.6394,436.2612L 508.5466,434.0916L 509.0299,433.057L 509.524,432.035L 510.5428,430.0074L 511.6523,428.001L 512.9204,426.0001L 514.3877,424L 516,422L 517.6291,420.002L 519.3323,418.0215L 520.2379,417.0654L 522.0962,415.2266L 524.0308,413.5557L 525.0191,412.8062L 526.0117,412.0859L 527.0071,411.3894L 529.0014,410.0402L 530.0008,409.41L 532.004,408.1967L 533.0215,407.6349L 535.1113,406.5462L 537.3613,405.5132L 539.834,404.5212L 542.4941,403.59L 545.2402,402.7539L 548,402L 550,401L 551,400L 552,399L 553,398Z" style="fill:rgb(254,254,254);"/>
<path d="M 574,545L 573.8418,543.834L 573.6836,541.5L 573.8418,539.166L 574,538L 574,535L 573.7344,533.7656L 573.2344,531.2656L 573,530L 572,527.5313L 571,525L 570,523L 569,521L 567.666,519L 567,518L 565.666,516L 565,515L 564,514L 563,513L 562,512L 561,511L 560,510L 559,509L 558,508L 557,507.4297L 555,506.248L 553,505L 551,504L 549,503L 546,502L 543.332,501.334L 542,501L 524,501L 522.668,501.334L 520,502L 517,503L 515,504L 513,505L 511,506.334L 510,507L 508,508.334L 507,509L 506,510L 505,511L 504,512L 503,513L 502,514L 501,515L 500,516L 499.334,517L 498,519L 497,521L 496,523L 495,525L 494,527L 493.334,529.668L 493,531L 493,553L 494,556L 495,558L 496,560L 497,562L 498,564L 498.7656,565L 500.2656,567L 501,568L 502,569L 503,570L 504,571L 505,572L 506,573L 508,574.4844L 510,576L 511,576.666L 513,578L 514.2656,578.5L 516.7656,579.5L 518,580L 521,581L 544,581L 545.332,580.666L 548,580L 550,579L 552,578L 554,577L 556,575.666L 557,575L 558,574.2344L 560,572.7344L 561,572L 562,571L 563,570L 564,569L 565.4844,567L 567,565L 567.666,564L 569,562L 570,560L 571,558L 571.5,556.7344L 572.5,554.2344L 573,553L 573.2344,551.7344L 573.7344,549.2344L 574,548Z" style="fill:rgb(254,254,254);"/>
<path d="M 634,315L 633.7539,313.5547L 633.3418,310.6055L 633.0879,307.5508L 633,306L 632.666,304.668L 632,302L 631,300L 630,298L 629,297L 628,296L 627,295L 626,294L 625,293L 624,292L 623,291L 622,290L 621,289.334L 619,288L 616,287L 613,286L 599,286L 597.7656,286.2656L 595.2656,286.7656L 594,287L 592,288L 590,289.334L 589,290L 588,291L 587,292L 586,293L 585,294L 584,295L 583,296L 582,297L 581.334,298L 580,300L 579,302L 578,305L 578,322L 579,325L 580,327L 581,329L 582.334,331L 583,332L 584,333L 585,334L 586,335L 587,336L 588,337L 589,337.666L 591,339L 593,340L 595,341L 597,342L 611,342L 612.332,341.666L 615,341L 618,340L 619,339.376L 621,338.1611L 623,337L 624,336L 625,335L 626,334L 627,333L 628,332L 628.666,331L 630,329L 631,327L 632,325L 633,322L 633.666,319.332L 634,318Z" style="fill:rgb(254,254,254);"/>
<path d="M 634,432L 633.666,430.668L 633,428L 632,426L 631,424L 630,422L 629,420L 628,419L 627,418L 626,417L 625,416L 624,415L 623,414L 622,413.334L 620,412L 618,411L 616,410L 614,409L 598,409L 595,410L 593,411L 591,412L 589,413L 588,414L 587,415L 586,416L 585,417L 584,418L 583,419L 582,420L 581.4297,421L 580.248,423L 579,425L 578,428L 578,446L 579,448.4688L 580,451L 581.334,453L 582,454L 583,455L 584,456L 585,457L 586,458L 587,459L 588,460L 589,461L 591,462L 593,463L 595,464L 597,465L 614,465L 616,464L 618,463L 620,462L 622,460.666L 623,460L 624,459L 625,458L 626,457L 627,456L 628,455L 629,454L 630,452L 631,450L 632,448L 633,446L 633.666,443.332L 634,442Z" style="fill:rgb(254,254,254);"/>
<path d="M 163,506L 163,497L 162,497L 162,506Z" style="fill:rgb(238,238,238);"/>
<path d="M 164,327L 164,310L 163,310L 163,327Z" style="fill:rgb(238,238,238);"/>
<path d="M 164,462L 164,418L 163,418L 163,462Z" style="fill:rgb(238,238,238);"/>
<path d="M 507,157L 296,157L 292.0039,156.998L 288.043,156.9785L 284.2188,156.8906L 280.6875,156.6563L 277.5078,156.2461L 276,156L 272,156L 270.4922,156.2461L 267.3125,156.6563L 263.7813,156.8906L 259.957,156.9785L 255.9961,156.998L 254,157L 254,158L 507,158Z" style="fill:rgb(238,238,238);"/>
</svg>